<svg width="217" height="205" viewBox="0 0 217 205" fill="none" xmlns="http://www.w3.org/2000/svg">
<path d="M55.8273 26.0919C55.8273 26.0919 59.3176 7.3368 59.3176 4.7205C59.3176 2.1042 61.9323 1.6666 64.5499 5.1568C67.1676 8.6455 78.9438 25.6555 78.9438 25.6555L55.8201 26.0897L55.8273 26.0919Z" fill="white" stroke="#20201E" stroke-width="3.4947"/>
<path d="M212.314 169.95C211.131 161.492 209.515 153.428 207.546 145.763L201.226 143.241L205.444 138.193C203.042 130.085 200.249 122.45 197.177 115.273L191.195 113.583L194.153 108.526C190.94 101.701 187.489 95.3347 183.907 89.4065L178.331 88.2866L180.334 83.6826C176.315 77.4857 172.189 71.8262 168.094 66.6893L162.192 66.0426L163.768 61.4465C158.978 55.821 154.311 50.9282 149.995 46.7483L144.092 46.4165L145.122 42.1875C134.593 32.6602 127.151 28.0238 127.151 28.0238L113.777 32.0961C113.777 32.0961 107.384 28.6058 102.149 25.1171C102.149 25.1171 98.6583 13.4866 97.5002 7.09C96.3327 0.693405 92.8456 3.59971 91.6812 5.34491C90.5198 7.09001 78.4515 20.4625 78.4515 20.4625C78.4515 20.4625 71.2343 19.4763 66.0915 20.4625C58.5364 21.9203 55.0465 27.0067 46.3177 35.2928C39.961 41.3377 36.1452 46.636 33.9667 52.3028C31.7854 57.9727 34.3999 57.9727 33.5335 63.2065C32.6548 68.4403 9.1022 107.692 6.4906 112.49C3.8699 117.288 -2.44678 131.96 9.97772 141.275C13.4616 143.892 16.0855 145.204 18.2638 146.072C18.2638 146.072 21.7509 145.204 23.0598 143.459C23.2933 143.148 23.4101 142.957 23.4684 142.851C23.5114 142.734 23.5329 142.727 23.4684 142.851C23.3363 143.191 23.0321 144.466 24.3686 146.072C26.55 148.692 29.3521 148.496 30.9096 148.692C33.2354 148.983 37.4507 146.95 40.9437 141.713C44.434 136.479 46.6152 134.732 49.233 131.68C51.8445 128.627 66.2817 121.873 71.9132 112.49C73.2189 110.313 76.2728 111.181 78.451 112.928C80.6324 114.673 92.845 115.11 98.0773 106.383C98.0773 106.383 100.551 129.328 90.2275 145.203C73.2191 171.372 44.433 177.91 35.7089 202.339H214.53C214.53 193.898 214.084 185.793 213.279 177.997L207.334 174.86L212.463 170.015L212.314 169.95Z" fill="white" stroke="#20201E" stroke-width="3.4947"/>
<path d="M120.165 37.9212C120.165 37.9212 196.341 94.9158 196.341 197.843" stroke="#20201E" stroke-width="2.684"/>
<path d="M23.4541 142.862C23.517 142.736 23.517 142.736 23.4541 142.862V142.862Z" stroke="#20201E" stroke-width="2.684"/>
<path d="M104.466 77.455C105.919 93.7338 98.3582 105.364 98.0693 106.381C98.0693 106.381 116.39 96.9337 118.132 84.4277" stroke="#20201E" stroke-width="2.684"/>
<path d="M98.0796 106.399C98.0796 106.399 110.292 112.364 119.307 108.584" stroke="#20201E" stroke-width="2.684"/>
<path d="M23.0452 143.46C23.0452 143.46 31.1868 132.991 33.5187 128.194" stroke="#20201E" stroke-width="2.684"/>
<path d="M73.2253 46.2112C73.2253 46.2112 59.8145 46.2742 55.3442 53.6234C49.2395 63.6563 56.2135 64.9635 56.2135 64.9635C56.2135 64.9635 63.1909 67.1464 67.9899 60.604C73.0992 53.6373 68.8625 49.2639 68.8625 49.2639L73.2041 46.209L73.2253 46.2112Z" stroke="#20201E" stroke-width="2.684"/>
<path d="M8.22705 120.777C13.0262 119.469 16.0801 119.907 18.2585 121.215C18.2585 121.215 16.0802 114.672 20.0005 109C23.9299 103.331 30.4681 102.893 36.1396 91.9904" stroke="#20201E" stroke-width="2.684"/>
<path d="M135.581 52.3146L143.855 47.0826" stroke="#20201E" stroke-width="2.684"/>
<path d="M152.601 71.0684L160.875 67.1452" stroke="#20201E" stroke-width="2.684"/>
<path d="M167.86 92.8394L177.455 88.9068" stroke="#20201E" stroke-width="2.684"/>
<path d="M180.067 117.725L190.103 114.233" stroke="#20201E" stroke-width="2.684"/>
<path d="M189.662 146.952L200.138 143.9" stroke="#20201E" stroke-width="2.684"/>
<path d="M195.325 176.62L206.242 175.298" stroke="#20201E" stroke-width="2.684"/>
</svg>
